<mxfile host="app.diagrams.net" agent="Mozilla/5.0 (X11; Linux x86_64; rv:135.0) Gecko/20100101 Firefox/135.0" version="26.0.16">
  <diagram name="Page-1" id="V1GujFbZTw827Pul6hBY">
    <mxGraphModel dx="572" dy="304" grid="1" gridSize="10" guides="1" tooltips="1" connect="1" arrows="1" fold="1" page="1" pageScale="1" pageWidth="850" pageHeight="1100" math="0" shadow="0">
      <root>
        <mxCell id="0" />
        <mxCell id="1" parent="0" />
        <mxCell id="26UO2kYcvrTAz7XTG01X-4" value="" style="edgeStyle=orthogonalEdgeStyle;rounded=0;orthogonalLoop=1;jettySize=auto;html=1;" edge="1" parent="1" source="26UO2kYcvrTAz7XTG01X-1" target="26UO2kYcvrTAz7XTG01X-2">
          <mxGeometry relative="1" as="geometry" />
        </mxCell>
        <mxCell id="26UO2kYcvrTAz7XTG01X-1" value="Start" style="ellipse;whiteSpace=wrap;html=1;" vertex="1" parent="1">
          <mxGeometry x="360" y="80" width="80" height="40" as="geometry" />
        </mxCell>
        <mxCell id="26UO2kYcvrTAz7XTG01X-6" value="" style="edgeStyle=orthogonalEdgeStyle;rounded=0;orthogonalLoop=1;jettySize=auto;html=1;" edge="1" parent="1" source="26UO2kYcvrTAz7XTG01X-2" target="26UO2kYcvrTAz7XTG01X-5">
          <mxGeometry relative="1" as="geometry" />
        </mxCell>
        <mxCell id="26UO2kYcvrTAz7XTG01X-2" value="Wczytaj a i b" style="shape=parallelogram;perimeter=parallelogramPerimeter;whiteSpace=wrap;html=1;fixedSize=1;" vertex="1" parent="1">
          <mxGeometry x="340" y="140" width="120" height="40" as="geometry" />
        </mxCell>
        <mxCell id="26UO2kYcvrTAz7XTG01X-8" value="" style="edgeStyle=orthogonalEdgeStyle;rounded=0;orthogonalLoop=1;jettySize=auto;html=1;" edge="1" parent="1" source="26UO2kYcvrTAz7XTG01X-5" target="26UO2kYcvrTAz7XTG01X-7">
          <mxGeometry relative="1" as="geometry" />
        </mxCell>
        <mxCell id="26UO2kYcvrTAz7XTG01X-5" value="result = a + b" style="rounded=0;whiteSpace=wrap;html=1;" vertex="1" parent="1">
          <mxGeometry x="340" y="200" width="120" height="30" as="geometry" />
        </mxCell>
        <mxCell id="26UO2kYcvrTAz7XTG01X-11" value="" style="edgeStyle=orthogonalEdgeStyle;rounded=0;orthogonalLoop=1;jettySize=auto;html=1;" edge="1" parent="1" source="26UO2kYcvrTAz7XTG01X-7" target="26UO2kYcvrTAz7XTG01X-10">
          <mxGeometry relative="1" as="geometry" />
        </mxCell>
        <mxCell id="26UO2kYcvrTAz7XTG01X-12" value="Nie" style="edgeLabel;html=1;align=center;verticalAlign=middle;resizable=0;points=[];" vertex="1" connectable="0" parent="26UO2kYcvrTAz7XTG01X-11">
          <mxGeometry x="0.3829" y="-1" relative="1" as="geometry">
            <mxPoint x="-14" y="-1" as="offset" />
          </mxGeometry>
        </mxCell>
        <mxCell id="26UO2kYcvrTAz7XTG01X-14" value="" style="edgeStyle=orthogonalEdgeStyle;rounded=0;orthogonalLoop=1;jettySize=auto;html=1;" edge="1" parent="1" source="26UO2kYcvrTAz7XTG01X-7" target="26UO2kYcvrTAz7XTG01X-13">
          <mxGeometry relative="1" as="geometry" />
        </mxCell>
        <mxCell id="26UO2kYcvrTAz7XTG01X-7" value="&lt;div&gt;czy&lt;/div&gt;&lt;div&gt;result = 0?&lt;/div&gt;" style="rhombus;whiteSpace=wrap;html=1;" vertex="1" parent="1">
          <mxGeometry x="340" y="250" width="120" height="80" as="geometry" />
        </mxCell>
        <mxCell id="26UO2kYcvrTAz7XTG01X-15" style="edgeStyle=orthogonalEdgeStyle;rounded=0;orthogonalLoop=1;jettySize=auto;html=1;entryX=1;entryY=0.5;entryDx=0;entryDy=0;" edge="1" parent="1" source="26UO2kYcvrTAz7XTG01X-10" target="26UO2kYcvrTAz7XTG01X-13">
          <mxGeometry relative="1" as="geometry">
            <Array as="points">
              <mxPoint x="560" y="370" />
            </Array>
          </mxGeometry>
        </mxCell>
        <mxCell id="26UO2kYcvrTAz7XTG01X-10" value="Wypisz result" style="shape=parallelogram;perimeter=parallelogramPerimeter;whiteSpace=wrap;html=1;fixedSize=1;" vertex="1" parent="1">
          <mxGeometry x="500" y="270" width="120" height="40" as="geometry" />
        </mxCell>
        <mxCell id="26UO2kYcvrTAz7XTG01X-13" value="End" style="ellipse;whiteSpace=wrap;html=1;" vertex="1" parent="1">
          <mxGeometry x="360" y="350" width="80" height="40" as="geometry" />
        </mxCell>
      </root>
    </mxGraphModel>
  </diagram>
</mxfile>
